<?xml version="1.0" standalone="no"?><!-- Generator: Gravit.io --><svg xmlns="http://www.w3.org/2000/svg" xmlns:xlink="http://www.w3.org/1999/xlink" style="isolation:isolate" viewBox="49.95826854421233 183 275.08346291157534 301.00000000000006" width="275.08346291157534" height="301.00000000000006"><path d=" M 253.66673145578767 358.25 C 252.16673145578767 357.125 250.29173145578767 357.125 248.79173145578767 358.25 L 209.41673145578767 391.625 C 207.91673145578767 392.75 207.54173145578767 394.625 208.66673145578767 396.125 C 209.79173145578767 398 210.91673145578767 399.5 212.04173145578767 401.375 C 218.04173145578767 408.50000000000006 226.66673145578767 412.25000000000006 235.29173145578767 412.25000000000006 C 242.04173145578767 412.25000000000006 249.16673145578767 410.00000000000006 254.79173145578767 405.125 C 261.16673145578767 399.875 264.91673145578767 392.75000000000006 265.66673145578767 384.5 C 266.4167314557877 376.625 263.79173145578767 368.75 258.9167314557877 362.375 C 257.04173145578767 361.25 255.16673145578767 359.75 253.66673145578767 358.25 Z  M 257.79173145578767 384.5 C 257.41673145578767 390.5 254.4167314557876 396.125 249.5417314557876 399.875 C 244.66673145578767 403.625 239.04173145578767 405.5 233.0417314557876 405.125 C 227.0417314557876 404.75000000000006 221.4167314557876 401.75 217.6667314557876 396.875 C 217.2917314557876 396.50000000000006 216.9167314557876 396.125 216.54173145578767 395.75 L 251.04173145578767 366.50000000000006 C 251.4167314557876 366.87500000000006 251.79173145578767 367.25000000000006 252.16673145578767 368 C 256.29173145578767 372.5 258.16673145578767 378.5 257.79173145578767 384.5 Z " fill-rule="evenodd" fill="rgb(209,209,209)" stroke-width="3.7500000000000004" stroke="rgba(0,0,0,0)" stroke-linejoin="miter" stroke-linecap="butt"/><path d=" M 243.9167314557876 387.125 C 242.4167314557876 385.625 240.1667314557876 385.25 238.6667314557876 386.75 C 237.1667314557876 388.25 236.7917314557876 390.49999999999994 238.2917314557876 392 L 240.1667314557876 394.24999999999994 C 240.91673145578767 395 242.0417314557876 395.75 243.1667314557876 395.75 C 243.9167314557876 395.75 245.0417314557876 395.375 245.4167314557876 395 C 246.9167314557876 393.49999999999994 247.2917314557876 391.25 245.79173145578756 389.75 L 243.9167314557876 387.125 Z " fill="rgb(209,209,209)" stroke-width="3.7500000000000004" stroke="rgba(0,0,0,0)" stroke-linejoin="miter" stroke-linecap="butt"/><path d=" M 232.66673145578767 389.75 C 230.79173145578767 389.375 228.54173145578767 390.5 228.16673145578767 392.75 L 227.4167314557876 396.875 C 227.0417314557876 398.75 228.16673145578767 400.99999999999994 230.4167314557876 401.375 C 230.7917314557876 401.375 230.7917314557876 401.375 231.1667314557876 401.375 C 233.0417314557876 401.375 234.5417314557876 400.25 234.9167314557876 398.375 L 235.66673145578767 394.25 C 236.04173145578767 392 234.54173145578767 390.125 232.66673145578767 389.75 Z " fill="rgb(209,209,209)" stroke-width="3.7500000000000004" stroke="rgba(0,0,0,0)" stroke-linejoin="miter" stroke-linecap="butt"/><path d=" M 246.54173145578767 377.375 C 244.29173145578767 377.375 242.79173145578767 379.25 242.79173145578767 381.125 C 242.79173145578767 383 244.66673145578767 384.875 246.54173145578767 384.875 C 246.54173145578767 384.875 246.54173145578767 384.875 246.54173145578767 384.875 L 250.6667314557876 384.875 C 252.9167314557876 384.875 254.4167314557876 383 254.4167314557876 381.125 C 254.4167314557876 378.875 252.5417314557876 377.375 250.6667314557876 377.375 L 246.54173145578767 377.375 Z " fill="rgb(209,209,209)" stroke-width="3.7500000000000004" stroke="rgba(0,0,0,0)" stroke-linejoin="miter" stroke-linecap="butt"/><path d=" M 98.04173145578766 338.375 C 102.16673145578766 340.625 106.66673145578766 341.375 111.16673145578766 341.375 C 122.41673145578767 341.375 133.29173145578767 335 138.54173145578767 324.5 C 139.66673145578767 322.625 140.41673145578767 320.375 140.79173145578767 318.5 C 141.16673145578767 316.625 140.41673145578767 315.125 138.91673145578767 314.375 L 92.04173145578766 291.875 C 90.54173145578767 291.12499999999994 88.66673145578767 291.5 87.54173145578767 292.99999999999994 C 86.41673145578766 294.49999999999994 85.29173145578766 296.37499999999994 84.16673145578767 298.24999999999994 C 76.66673145578766 312.875 83.04173145578766 331.25 98.04173145578766 338.375 Z  M 90.91673145578766 301.25 C 91.29173145578767 300.875 91.29173145578767 300.125 91.66673145578766 299.75 L 132.54173145578767 319.25 C 132.16673145578767 320 132.16673145578767 320.375 131.7917314557876 321.125 C 126.16673145578763 332.375 112.66673145578763 337.25 101.41673145578763 331.625 C 89.79173145578766 326.375 85.29173145578766 312.5 90.91673145578766 301.25 Z " fill-rule="evenodd" fill="rgb(209,209,209)" stroke-width="3.7500000000000004" stroke="rgba(0,0,0,0)" stroke-linejoin="miter" stroke-linecap="butt"/><path d=" M 104.04173145578766 325.625 C 104.79173145578766 326 105.16673145578766 326 105.91673145578766 326 C 107.41673145578766 326 108.54173145578766 325.25 109.29173145578766 323.75 L 110.79173145578764 321.125 C 111.54173145578764 319.25 110.79173145578764 317 108.91673145578764 316.25 C 107.04173145578764 315.5 104.79173145578764 316.25 104.04173145578764 318.125 L 102.54173145578766 320.75 C 101.41673145578766 322.625 102.16673145578766 324.875 104.04173145578766 325.625 Z " fill="rgb(209,209,209)" stroke-width="3.7500000000000004" stroke="rgba(0,0,0,0)" stroke-linejoin="miter" stroke-linecap="butt"/><path d=" M 100.66673145578766 316.625 C 102.54173145578766 316.25 104.04173145578764 314.375 103.66673145578766 312.125 C 103.29173145578766 309.875 101.41673145578764 308.75 99.16673145578766 309.125 L 95.04173145578766 309.875 C 93.16673145578766 310.25 91.66673145578766 312.125 92.04173145578764 314.375 C 92.41673145578766 316.25 93.91673145578764 317.375 95.79173145578764 317.375 C 96.16673145578766 317.375 96.16673145578766 317.375 96.54173145578764 317.375 L 100.66673145578766 316.625 Z " fill="rgb(209,209,209)" stroke-width="3.7500000000000004" stroke="rgba(0,0,0,0)" stroke-linejoin="miter" stroke-linecap="butt"/><path d=" M 115.66673145578766 326.75 C 116.41673145578766 327.875 117.54173145578766 329 119.04173145578764 329 C 119.79173145578766 329 120.16673145578763 329 120.54173145578764 328.625 C 122.41673145578764 327.875 123.16673145578766 325.625 122.04173145578763 323.75 L 120.16673145578763 320 C 119.41673145578763 318.125 117.16673145578764 317.375 115.29173145578763 318.5 C 113.41673145578763 319.25 112.66673145578763 321.5 113.79173145578764 323.375 L 115.66673145578766 326.75 Z " fill="rgb(209,209,209)" stroke-width="3.7500000000000004" stroke="rgba(0,0,0,0)" stroke-linejoin="miter" stroke-linecap="butt"/><path d=" M 244.29173145578767 353 C 245.04173145578767 353.75 246.16673145578767 354.125 246.91673145578767 354.125 C 247.66673145578767 354.125 248.04173145578767 354.125 248.79173145578767 353.75 C 250.66673145578767 352.625 252.16673145578773 351.5 253.66673145578767 350 C 259.66673145578767 344.75 263.04173145578767 337.25 263.79173145578767 329 C 264.16673145578767 320.75 261.5417314557877 313.25 255.91673145578773 307.25 C 244.66673145578773 294.875 225.54173145578767 293.75 213.16673145578773 305 C 211.66673145578773 306.5 210.16673145578773 308 208.66673145578767 309.875 C 207.54173145578773 311.375 207.91673145578767 313.25 209.04173145578773 314.75 L 244.29173145578767 353 Z  M 218.41673145578767 310.625 C 222.91673145578767 306.5 228.9167314557876 304.625 234.9167314557876 305 C 240.91673145578767 305.375 246.54173145578767 308 250.6667314557876 312.5 C 254.7917314557876 317 256.6667314557876 323 256.2917314557876 329 C 255.91673145578767 335 253.29173145578767 340.625 248.7917314557876 344.75 C 248.41673145578767 345.125 248.0417314557876 345.5 247.6667314557876 345.875 L 216.9167314557876 312.5 C 217.66673145578767 311.75 218.04173145578767 311 218.41673145578767 310.625 Z " fill-rule="evenodd" fill="rgb(209,209,209)" stroke-width="3.7500000000000004" stroke="rgba(0,0,0,0)" stroke-linejoin="miter" stroke-linecap="butt"/><path d=" M 245.41673145578767 322.25 C 246.91673145578767 320.75 246.91673145578767 318.5 245.7917314557876 317 C 244.2917314557876 315.5 242.0417314557876 315.5 240.5417314557876 316.625 L 237.91673145578767 318.5 C 236.4167314557876 320 236.4167314557876 322.25 237.54173145578767 323.75 C 238.29173145578767 324.5 239.41673145578767 324.875 240.16673145578767 324.875 C 240.91673145578773 324.875 242.04173145578767 324.5 242.79173145578773 323.75 L 245.41673145578767 322.25 Z " fill="rgb(209,209,209)" stroke-width="3.7500000000000004" stroke="rgba(0,0,0,0)" stroke-linejoin="miter" stroke-linecap="butt"/><path d=" M 249.16673145578767 335 C 251.04173145578767 335 252.54173145578767 333.875 252.91673145578767 332 C 253.29173145578767 330.125 251.79173145578767 327.875 249.91673145578767 327.5 L 245.79173145578767 326.75 C 243.54173145578773 326.375 241.66673145578773 327.875 241.29173145578767 329.75 C 240.91673145578773 331.625 242.41673145578767 333.875 244.29173145578767 334.25 L 248.41673145578767 335 C 248.79173145578767 335 248.79173145578767 335 249.16673145578767 335 Z " fill="rgb(209,209,209)" stroke-width="3.7500000000000004" stroke="rgba(0,0,0,0)" stroke-linejoin="miter" stroke-linecap="butt"/><path d=" M 231.54173145578767 308 C 229.2917314557876 308 227.79173145578767 309.875 228.16673145578767 312.125 L 228.54173145578767 316.25 C 228.54173145578767 318.125 230.41673145578767 319.625 232.29173145578767 319.625 C 232.29173145578767 319.625 232.66673145578767 319.625 232.66673145578767 319.625 C 234.91673145578767 319.625 236.4167314557876 317.75 236.04173145578767 315.5 L 235.66673145578767 311.375 C 235.29173145578767 309.5 233.41673145578767 308 231.54173145578767 308 Z " fill="rgb(209,209,209)" stroke-width="3.7500000000000004" stroke="rgba(0,0,0,0)" stroke-linejoin="miter" stroke-linecap="butt"/><path d=" M 61.666731455787655 332.375 C 70.66673145578766 347 88.29173145578766 354.875 114.16673145578766 355.25 L 114.16673145578766 471.50000000000006 L 90.54173145578766 471.50000000000006 C 88.29173145578764 471.50000000000006 86.79173145578766 473.00000000000006 86.79173145578766 475.25000000000006 C 86.79173145578766 477.5 88.29173145578764 479.00000000000006 90.54173145578766 479.00000000000006 L 145.66673145578767 479.00000000000006 C 147.91673145578767 479.00000000000006 149.41673145578767 477.5 149.41673145578767 475.25000000000006 C 149.41673145578767 473.00000000000006 147.91673145578767 471.50000000000006 145.66673145578767 471.50000000000006 L 122.04173145578766 471.50000000000006 L 122.04173145578766 355.25000000000006 C 147.91673145578767 354.875 165.54173145578767 347 174.54173145578767 332.375 C 191.79173145578767 304.25 170.79173145578767 261.12500000000006 169.66673145578767 259.62500000000006 C 168.91673145578767 258.50000000000006 167.79173145578767 257.75000000000006 166.29173145578767 257.75000000000006 L 118.66673145578767 257.75000000000006 C 118.29173145578766 257.75000000000006 118.29173145578766 257.75000000000006 117.91673145578766 257.75000000000006 C 117.54173145578766 257.75000000000006 117.54173145578766 257.75000000000006 117.16673145578764 257.75000000000006 L 69.91673145578766 257.75000000000006 C 68.41673145578766 257.75000000000006 67.29173145578766 258.50000000000006 66.54173145578766 259.62500000000006 C 65.79173145578766 261.125 44.416731455787655 304.25 61.666731455787655 332.375 Z  M 72.54173145578766 264.875 L 117.16673145578764 264.875 C 117.54173145578766 264.875 117.54173145578766 264.875 117.91673145578766 264.875 C 118.29173145578766 264.875 118.29173145578766 264.875 118.66673145578767 264.875 L 163.29173145578767 264.875 C 164.79173145578767 268.25 167.41673145578767 274.625 169.66673145578767 282.875 C 164.79173145578767 284.75 158.41673145578767 286.25 148.66673145578767 286.25 C 136.29173145578767 286.25 129.54173145578767 283.625 122.41673145578767 280.625 C 114.91673145578767 277.625 107.41673145578767 274.625 93.54173145578767 274.625 C 80.79173145578767 274.625 73.29173145578766 277.25 66.54173145578767 279.875 C 68.79173145578766 273.125 71.04173145578766 267.5 72.54173145578766 264.875 Z  M 64.66673145578766 288.5 L 64.66673145578766 288.875 L 67.29173145578766 287.75 C 74.41673145578766 284.75 81.16673145578766 282.125 93.54173145578766 282.125 C 105.91673145578766 282.125 112.66673145578766 284.75 119.79173145578766 287.75 C 127.29173145578766 290.75 134.79173145578767 293.75 148.66673145578767 293.75 C 159.16673145578767 293.75 165.91673145578767 291.875 171.16673145578767 290 C 173.79173145578767 302.375 174.16673145578767 317 167.04173145578767 327.875 C 159.16673145578767 340.625 142.66673145578767 347.375 118.29173145578766 347.375 C 118.29173145578766 347.375 117.91673145578766 347.375 117.91673145578766 347.375 C 117.91673145578766 347.375 117.54173145578766 347.375 117.54173145578766 347.375 C 117.54173145578766 347.375 117.16673145578764 347.375 117.16673145578764 347.375 C 117.16673145578764 347.375 116.79173145578764 347.375 116.79173145578764 347.375 C 92.41673145578764 347.375 75.91673145578764 341 68.04173145578764 327.875 C 60.916731455787655 316.625 61.666731455787655 301.25 64.66673145578766 288.5 Z " fill-rule="evenodd" fill="rgb(209,209,209)" stroke-width="3.7500000000000004" stroke="rgba(0,0,0,0)" stroke-linejoin="miter" stroke-linecap="butt"/><path d=" M 282.91673145578767 265.625 C 291.16673145578767 265.625 299.04173145578767 263 305.41673145578767 258.125 C 314.79173145578767 251 320.04173145578767 239.375 320.04173145578767 227.75 C 320.04173145578767 206 302.41673145578767 188 280.2917314557877 188 C 259.6667314557877 188 242.41673145578773 204.125 240.91673145578773 224.375 L 189.54173145578767 224.375 C 188.41673145578767 224.375 186.91673145578767 225.125 186.54173145578767 226.25 C 185.79173145578767 227.375 185.79173145578767 228.5 186.16673145578767 230 C 186.54173145578767 230.375 205.29173145578767 272.375 195.54173145578767 312.875 C 179.41673145578767 381.5 191.41673145578767 422.375 231.16673145578767 435.125 L 231.16673145578767 471.5 L 207.54173145578767 471.5 C 205.29173145578767 471.5 203.79173145578767 473 203.79173145578767 475.25 C 203.79173145578767 477.49999999999994 205.29173145578767 479 207.54173145578767 479 L 261.91673145578767 479 C 264.16673145578767 479 265.66673145578767 477.49999999999994 265.66673145578767 475.25 C 265.66673145578767 473 264.16673145578767 471.5 261.91673145578767 471.5 L 238.29173145578767 471.5 L 238.29173145578767 435.125 C 278.4167314557877 422.37499999999994 290.4167314557877 381.5 274.29173145578767 312.5 C 270.1667314557877 295.625 271.29173145578767 278.75 273.54173145578767 264.5 C 276.91673145578767 265.25 279.91673145578767 265.625 282.91673145578767 265.625 Z  M 280.66673145578767 195.5 C 298.2917314557877 195.5 312.91673145578767 210.125 312.91673145578767 227.75 C 312.91673145578767 237.5 308.41673145578767 246.5 301.29173145578767 252.5 C 296.4167314557877 256.25 287.7917314557877 260.375 275.7917314557877 257.75 C 279.1667314557877 241.25 284.41673145578767 230.375 284.41673145578767 230 C 284.79173145578767 228.875 284.79173145578767 227.375 284.0417314557877 226.25 C 283.2917314557877 225.125 282.1667314557877 224.375 281.0417314557877 224.375 L 249.16673145578773 224.375 C 250.29173145578767 208.25 263.79173145578767 195.5 280.66673145578767 195.5 Z  M 234.91673145578767 428.375 C 197.79173145578767 417.49999999999994 186.91673145578767 380 202.66673145578767 314.375 C 206.04173145578767 299.375 206.04173145578767 284.75 204.54173145578767 271.625 L 205.29173145578767 271.25 C 209.41673145578767 267.875 213.16673145578767 265.25 219.91673145578767 265.25 C 226.66673145578767 265.25 230.41673145578767 267.875 234.54173145578767 271.25 C 239.04173145578767 274.625 244.29173145578767 278.75 253.66673145578767 278.75 C 258.16673145578767 278.75 261.54173145578767 278 264.16673145578767 276.5 C 263.04173145578767 288.5 263.79173145578767 301.25 266.79173145578767 314.375 C 282.91673145578767 380.375 272.41673145578767 417.5 234.91673145578767 428.375 Z  M 265.66673145578767 267.125 C 262.6667314557877 269 259.29173145578767 270.875 254.04173145578773 270.875 C 247.29173145578773 270.875 243.54173145578773 268.25 239.41673145578767 264.875 C 234.91673145578767 261.5 229.66673145578767 257.375 220.29173145578767 257.375 C 212.79173145578767 257.375 207.91673145578767 260 203.79173145578767 263 C 201.54173145578767 249.125 197.79173145578767 237.875 195.16673145578767 231.875 L 275.04173145578767 231.875 C 272.41673145578767 238.625 267.91673145578767 251.375 265.66673145578767 267.125 Z " fill-rule="evenodd" fill="rgb(209,209,209)" stroke-width="3.7500000000000004" stroke="rgba(0,0,0,0)" stroke-linejoin="miter" stroke-linecap="butt"/><path d=" M 291.16673145578767 227.75 C 291.16673145578767 230 292.6667314557877 231.5 294.91673145578767 231.5 L 303.54173145578767 231.5 C 305.79173145578767 231.5 307.29173145578767 230 307.29173145578767 227.75 C 307.29173145578767 225.5 305.79173145578767 224 303.54173145578767 224 L 294.91673145578767 224 C 292.66673145578767 224 291.16673145578767 225.5 291.16673145578767 227.75 Z " fill="rgb(209,209,209)" stroke-width="3.7500000000000004" stroke="rgba(0,0,0,0)" stroke-linejoin="miter" stroke-linecap="butt"/><path d=" M 284.41673145578767 213.5 L 284.41673145578767 204.875 C 284.41673145578767 202.625 282.91673145578767 201.125 280.66673145578767 201.125 C 278.4167314557877 201.125 276.91673145578767 202.625 276.91673145578767 204.875 L 276.91673145578767 213.5 C 276.91673145578767 215.75 278.4167314557877 217.25 280.66673145578767 217.25 C 282.91673145578767 217.25 284.41673145578767 215.375 284.41673145578767 213.5 Z " fill="rgb(209,209,209)" stroke-width="3.7500000000000004" stroke="rgba(0,0,0,0)" stroke-linejoin="miter" stroke-linecap="butt"/><path d=" M 294.16673145578767 246.5 C 294.91673145578767 247.25 296.04173145578767 247.625 296.79173145578767 247.625 C 297.54173145578767 247.625 298.66673145578767 247.25 299.41673145578767 246.5 C 300.9167314557877 245 300.9167314557877 242.75 299.41673145578767 241.25 L 293.4167314557877 235.25 C 291.91673145578767 233.75 289.6667314557877 233.75 288.16673145578767 235.25 C 286.66673145578767 236.75 286.66673145578767 239 288.16673145578767 240.5 L 294.16673145578767 246.5 Z " fill="rgb(209,209,209)" stroke-width="3.7500000000000004" stroke="rgba(0,0,0,0)" stroke-linejoin="miter" stroke-linecap="butt"/><path d=" M 266.79173145578767 208.625 C 265.29173145578767 207.125 263.04173145578767 207.125 261.54173145578767 208.625 C 260.0417314557876 210.125 260.0417314557876 212.375 261.54173145578767 213.875 L 267.5417314557876 219.875 C 268.29173145578767 220.625 269.4167314557876 221 270.16673145578767 221 C 270.91673145578767 221 272.04173145578767 220.625 272.79173145578767 219.875 C 274.29173145578767 218.375 274.29173145578767 216.125 272.79173145578767 214.625 L 266.79173145578767 208.625 Z " fill="rgb(209,209,209)" stroke-width="3.7500000000000004" stroke="rgba(0,0,0,0)" stroke-linejoin="miter" stroke-linecap="butt"/><path d=" M 290.79173145578767 221.375 C 291.9167314557876 221.375 292.66673145578767 221 293.41673145578767 220.25 L 299.4167314557876 214.25 C 300.91673145578767 212.75 300.91673145578767 210.5 299.4167314557876 209 C 297.9167314557876 207.5 295.6667314557876 207.5 294.1667314557876 209 L 288.1667314557876 215 C 286.6667314557876 216.5 286.6667314557876 218.75 288.1667314557876 220.25 C 288.54173145578767 221 289.66673145578767 221.375 290.79173145578767 221.375 Z " fill="rgb(209,209,209)" stroke-width="3.7500000000000004" stroke="rgba(0,0,0,0)" stroke-linejoin="miter" stroke-linecap="butt"/></svg>