<svg xmlns="http://www.w3.org/2000/svg" xmlns:xlink="http://www.w3.org/1999/xlink" version="1.1" x="0px" y="0px" viewBox="0 0 100 125" enable-background="new 0 0 100 100" xml:space="preserve"><g><path d="M27.188,95c0.654,0,1.316-0.057,1.981-0.174h0l51.839-9.141c5.502-0.974,9.373-5.751,9.373-11.157   c0-0.654-0.057-1.317-0.174-1.981l-6.239-35.381c-0.973-5.502-5.751-9.373-11.157-9.373c-0.654,0-1.317,0.057-1.981,0.174   l-10.026,1.768L47.932,14.304c0.248-0.72,0.385-1.485,0.385-2.274c0-0.405-0.035-0.815-0.108-1.226C47.606,7.397,44.65,5,41.301,5   c-0.405,0-0.815,0.035-1.226,0.108c-3.407,0.604-5.803,3.559-5.803,6.909c0,0.405,0.035,0.815,0.108,1.226   c0.182,1.024,0.579,1.955,1.132,2.759l-7.008,19.43l-9.511,1.677h0c-5.502,0.973-9.373,5.751-9.373,11.157   c0,0.654,0.057,1.317,0.174,1.981l6.239,35.382C17.005,91.129,21.782,95,27.188,95z M40.579,7.967L40.579,7.967   c0.244-0.043,0.485-0.064,0.722-0.064c1.956,0,3.701,1.406,4.05,3.405v0c0.043,0.244,0.063,0.484,0.063,0.722   c0,1.955-1.406,3.701-3.405,4.05h0c-0.243,0.043-0.484,0.063-0.722,0.063c-1.956,0-3.701-1.407-4.05-3.405   c-0.043-0.244-0.063-0.485-0.063-0.722C37.174,10.061,38.581,8.316,40.579,7.967z M37.83,18.129   c1.033,0.587,2.218,0.917,3.458,0.917c0.404,0,0.815-0.035,1.226-0.107h0c1.512-0.268,2.823-1.001,3.816-2.024l11.18,13.401   l-25.71,4.533L37.83,18.129z M12.522,48.264c0-4.012,2.881-7.579,6.974-8.298h0l10.121-1.785c0.136-0.004,0.269-0.029,0.397-0.07   l30.29-5.341c0.134-0.005,0.267-0.027,0.397-0.07l10.636-1.875c0.498-0.088,0.991-0.13,1.477-0.13c4.012,0,7.579,2.88,8.298,6.974   l6.239,35.382c0.088,0.497,0.13,0.991,0.13,1.477c0,4.012-2.881,7.579-6.974,8.298l-51.839,9.141h0   c-0.497,0.088-0.991,0.13-1.477,0.13c-4.012,0-7.579-2.881-8.298-6.974l-6.239-35.382C12.564,49.244,12.522,48.751,12.522,48.264z"/><polygon points="40.074,5.108 40.074,5.108 40.075,5.108  "/><polygon points="47.527,46.219 47.527,46.219 47.528,46.219  "/><path d="M34.822,63.869c1.232,7.545,7.75,12.907,15.161,12.907c0.822,0,1.654-0.066,2.489-0.202l0.001,0   c7.546-1.232,12.908-7.751,12.908-15.161c0-0.822-0.066-1.654-0.202-2.489c-1.232-7.546-7.75-12.908-15.161-12.908   c-0.822,0-1.654,0.066-2.49,0.202c-7.545,1.232-12.907,7.75-12.907,15.161C34.62,62.201,34.686,63.033,34.822,63.869L34.822,63.869   z M52.006,73.709c-0.681,0.111-1.357,0.164-2.023,0.164c-6.001,0-11.302-4.35-12.295-10.471c-0.111-0.681-0.164-1.357-0.164-2.023   c0-2.16,0.571-4.226,1.578-6.036l20.095,14.465C57.369,71.81,54.888,73.241,52.006,73.709z M47.994,49.084L47.994,49.084   c0.681-0.111,1.356-0.165,2.023-0.165c6.001,0,11.302,4.351,12.295,10.472c0.111,0.681,0.164,1.356,0.164,2.022   c0,2.162-0.572,4.23-1.581,6.041L40.8,52.989C42.628,50.985,45.11,49.553,47.994,49.084z"/></g></svg>
